# xmcd
#
# Track frame offsets: 
#        150
#        15012
#        29492
#        44085
#        58475
#        72425
#        86565
#        101302
#        115537
#        130020
#        144282
#        157500
#        170520
#        185080
#        199390
#        210287
#        221890
#        235635
#        249242
#        262742
#        276950
#        291342
#        305580
#        319885
#        333565
#
# Disc length: 4619 seconds
#
# Revision: 0
# Processed by: cddbd v1.5.2PL0 Copyright (c) Steve Scherf et al.
# Submitted via: ExactAudioCopyFreeDBPlugin 1.0
#
DISCID=69120919
DTITLE=Lucille Hegamin - Complete Recorded Works Vol. 2 (1922-1923)
DYEAR=1995
DGENRE=Blues
TTITLE0=I've Got to Cool My Puppies Now
TTITLE1=Send Back My Honey Man
TTITLE2=I've Got What It Takes but It Breaks My Heart to Give It Away
TTITLE3=Can't Get Lovin' Blues
TTITLE4=Beale St. Mama (Why Don't You Come Back Home)
TTITLE5=Aggravatin' Papa (Don't You Try to Two-Time Me)
TTITLE6=Papa Papa (I Don't Want to Be Your Mama No More)
TTITLE7=He May Be Your Man (But He Comes to See Me Sometimes)
TTITLE8=Syncopatin' Mama
TTITLE9=Your Man -- My Man
TTITLE10=Waiting for the Evening Mail (Sitting on the Inside Looking a
TTITLE10=t the Outside)
TTITLE11=Now You've Got Him Can You Hold Him (I Don't Think You Know Y
TTITLE11=our Business Blues)
TTITLE12=Two Time Dan
TTITLE13=Wet Yo' Thumb
TTITLE14=Bleeding Hearted Blues
TTITLE15=Down Hearted Blues
TTITLE16=Wanna Go South Again Blues
TTITLE17=Some Early Morning
TTITLE18=Land of Cotton Blues
TTITLE19=Sweet Papa Joe
TTITLE20=Sam Jones Blues (You Ain't Talkin' to Mrs. Jones)
TTITLE21=Saint Louis Gal
TTITLE22=Cold Cold Winter Blues
TTITLE23=Dina
TTITLE24=Lovey Come Back
EXTD=
EXTT0=
EXTT1=
EXTT2=
EXTT3=
EXTT4=
EXTT5=
EXTT6=
EXTT7=
EXTT8=
EXTT9=
EXTT10=
EXTT11=
EXTT12=
EXTT13=
EXTT14=
EXTT15=
EXTT16=
EXTT17=
EXTT18=
EXTT19=
EXTT20=
EXTT21=
EXTT22=
EXTT23=
EXTT24=
PLAYORDER=
